<svg width="14" height="14" viewBox="0 0 14 14" fill="none" xmlns="http://www.w3.org/2000/svg">
<path d="M2.94998 10.25C3.54998 9.82775 4.19164 9.51386 4.87498 9.30831C5.55831 9.10275 6.26664 8.99998 6.99998 8.99998C7.73331 8.99998 8.44164 9.10275 9.12498 9.30831C9.80831 9.51386 10.45 9.82775 11.05 10.25C11.4389 9.79442 11.7278 9.28887 11.9166 8.73331C12.1055 8.17775 12.2 7.59998 12.2 6.99998C12.2 5.5592 11.6931 4.33231 10.6795 3.31931C9.66581 2.30642 8.43803 1.79998 6.99614 1.79998C5.55425 1.79998 4.32775 2.30642 3.31664 3.31931C2.30553 4.33231 1.79998 5.5592 1.79998 6.99998C1.79998 7.59998 1.89442 8.17775 2.08331 8.73331C2.2722 9.28887 2.56109 9.79442 2.94998 10.25ZM6.99998 8.19998C6.33331 8.19998 5.76664 7.96664 5.29998 7.49998C4.83331 7.03331 4.59998 6.46664 4.59998 5.79998C4.59998 5.13331 4.83331 4.56664 5.29998 4.09998C5.76664 3.63331 6.33331 3.39998 6.99998 3.39998C7.66664 3.39998 8.23331 3.63331 8.69998 4.09998C9.16664 4.56664 9.39998 5.13331 9.39998 5.79998C9.39998 6.46664 9.16664 7.03331 8.69998 7.49998C8.23331 7.96664 7.66664 8.19998 6.99998 8.19998ZM7.00464 13.4C6.12375 13.4 5.29442 13.2333 4.51664 12.9C3.73886 12.5666 3.05831 12.1083 2.47498 11.525C1.89164 10.9416 1.43331 10.2613 1.09998 9.48398C0.766642 8.70664 0.599976 7.87609 0.599976 6.99231C0.599976 6.10853 0.766642 5.28053 1.09998 4.50831C1.43331 3.73609 1.89164 3.05831 2.47498 2.47498C3.05831 1.89164 3.73864 1.43331 4.51598 1.09998C5.29331 0.766642 6.12386 0.599976 7.00764 0.599976C7.89142 0.599976 8.71942 0.766642 9.49164 1.09998C10.2639 1.43331 10.9416 1.89164 11.525 2.47498C12.1083 3.05831 12.5666 3.73731 12.9 4.51198C13.2333 5.28675 13.4 6.11453 13.4 6.99531C13.4 7.8762 13.2333 8.70553 12.9 9.48331C12.5666 10.2611 12.1083 10.9416 11.525 11.525C10.9416 12.1083 10.2626 12.5666 9.48798 12.9C8.7132 13.2333 7.88542 13.4 7.00464 13.4ZM6.99998 12.2C7.57775 12.2 8.13331 12.1083 8.66664 11.925C9.19998 11.7416 9.69998 11.4722 10.1666 11.1166C9.68886 10.8166 9.18331 10.5889 8.64998 10.4333C8.11664 10.2778 7.56664 10.2 6.99998 10.2C6.43331 10.2 5.88053 10.275 5.34164 10.425C4.80275 10.575 4.29998 10.8055 3.83331 11.1166C4.29998 11.4722 4.79998 11.7416 5.33331 11.925C5.86664 12.1083 6.4222 12.2 6.99998 12.2ZM6.99998 6.99998C7.33331 6.99998 7.61664 6.88331 7.84998 6.64998C8.08331 6.41664 8.19998 6.13331 8.19998 5.79998C8.19998 5.46664 8.08331 5.18331 7.84998 4.94998C7.61664 4.71664 7.33331 4.59998 6.99998 4.59998C6.66664 4.59998 6.38331 4.71664 6.14998 4.94998C5.91664 5.18331 5.79998 5.46664 5.79998 5.79998C5.79998 6.13331 5.91664 6.41664 6.14998 6.64998C6.38331 6.88331 6.66664 6.99998 6.99998 6.99998Z" fill="black"/>
</svg>
