<svg width="40" height="40" viewBox="0 0 40 40" fill="none" xmlns="http://www.w3.org/2000/svg">
<circle cx="20" cy="20" r="20" fill="#1F22EE"/>
<mask id="mask0_560_210" style="mask-type:alpha" maskUnits="userSpaceOnUse" x="8" y="8" width="24" height="24">
<rect x="8" y="8" width="24" height="24" fill="#D9D9D9"/>
</mask>
<g mask="url(#mask0_560_210)">
<path d="M20 30C17.7167 30 15.8125 29.2167 14.2875 27.65C12.7625 26.0833 12 24.1333 12 21.8C12 20.1333 12.6625 18.3208 13.9875 16.3625C15.3125 14.4042 17.3167 12.2833 20 10C22.6833 12.2833 24.6875 14.4042 26.0125 16.3625C27.3375 18.3208 28 20.1333 28 21.8C28 24.1333 27.2375 26.0833 25.7125 27.65C24.1875 29.2167 22.2833 30 20 30ZM20 28.3333C21.8222 28.3333 23.3333 27.7124 24.5333 26.4708C25.7333 25.2291 26.3333 23.6704 26.3333 21.7948C26.3333 20.5149 25.7958 19.0611 24.7208 17.4333C23.6458 15.8056 22.0722 14.0668 20 12.2167C17.9278 14.0668 16.3543 15.8056 15.2793 17.4333C14.2043 19.0611 13.6667 20.5149 13.6667 21.7948C13.6667 23.6704 14.2668 25.2291 15.4668 26.4708C16.6667 27.7124 18.1778 28.3333 20 28.3333ZM17 25.6668H23V24H17V25.6668ZM19.1667 23H20.8333V20.8333H23V19.1668H20.8333V17H19.1667V19.1668H17V20.8333H19.1667V23Z" fill="white"/>
</g>
</svg>
