<svg width="40" height="40" viewBox="0 0 40 40" fill="none" xmlns="http://www.w3.org/2000/svg">
<circle cx="20" cy="20" r="20" fill="#1F22EE"/>
<mask id="mask0_560_660" style="mask-type:alpha" maskUnits="userSpaceOnUse" x="8" y="8" width="24" height="24">
<rect x="8" y="8" width="24" height="24" fill="#D9D9D9"/>
</mask>
<g mask="url(#mask0_560_660)">
<path d="M21.9083 30.0001C21.4306 30.0001 20.9737 29.9001 20.5375 29.7001C20.1013 29.5001 19.7361 29.2112 19.4418 28.8333L14.0083 21.9251L14.5167 21.3751C14.7834 21.0918 15.1084 20.9195 15.4917 20.8583C15.8751 20.7973 16.2334 20.864 16.5668 21.0583L18.8332 22.3168V11.8333C18.8332 11.5973 18.9134 11.3994 19.0738 11.2396C19.2341 11.0799 19.4327 11.0001 19.6695 11.0001C19.9065 11.0001 20.1056 11.0799 20.2668 11.2396C20.4277 11.3994 20.5082 11.5973 20.5082 11.8333V25.1833L17.3 23.4001L20.7668 27.8083C20.9111 27.9862 21.0819 28.1182 21.2792 28.2043C21.4766 28.2903 21.6863 28.3333 21.9083 28.3333H27.1667C27.7722 28.3333 28.2847 28.1237 28.7042 27.7043C29.1236 27.2848 29.3333 26.7723 29.3333 26.1668V18.8333C29.3333 18.5973 29.4134 18.3994 29.5737 18.2396C29.7341 18.0799 29.9327 18.0001 30.1695 18.0001C30.4065 18.0001 30.6042 18.0799 30.7625 18.2396C30.9208 18.3994 31 18.5973 31 18.8333V26.1668C31 27.2335 30.6278 28.139 29.8833 28.8833C29.1389 29.6278 28.2334 30.0001 27.1667 30.0001H21.9083ZM22.3333 21.0001V15.8333C22.3333 15.5973 22.4134 15.3994 22.5737 15.2396C22.7341 15.0799 22.9327 15.0001 23.1695 15.0001C23.4065 15.0001 23.6042 15.0799 23.7625 15.2396C23.9208 15.3994 24 15.5973 24 15.8333V21.0001H22.3333ZM25.8333 21.0001V16.8333C25.8333 16.5973 25.9134 16.3994 26.0737 16.2396C26.2341 16.0799 26.4327 16.0001 26.6695 16.0001C26.9065 16.0001 27.1042 16.0799 27.2625 16.2396C27.4208 16.3994 27.5 16.5973 27.5 16.8333V21.0001H25.8333ZM12.5 18.0001C11.5333 18.0001 10.7083 17.6668 10.025 17.0001C9.34167 16.3334 9 15.5168 9 14.5501C9 13.8501 9.20833 13.2209 9.625 12.6626C10.0417 12.1043 10.475 11.5584 10.925 11.0251L12.5 9.2251L14.075 11.0501C14.525 11.5834 14.9583 12.1251 15.375 12.6751C15.7917 13.2251 16 13.8501 16 14.5501C16 15.5168 15.6583 16.3334 14.975 17.0001C14.2917 17.6668 13.4667 18.0001 12.5 18.0001ZM12.496 16.3333C13.0042 16.3333 13.4374 16.1592 13.7958 15.8108C14.1541 15.4623 14.3332 15.0421 14.3332 14.5501C14.3332 14.0668 14.1679 13.6443 13.8373 13.2826C13.5064 12.9208 13.1801 12.5543 12.8582 12.1833L12.4833 11.7918L12.125 12.1833C11.8028 12.55 11.4792 12.9153 11.1542 13.2793C10.8292 13.6432 10.6667 14.0668 10.6667 14.5501C10.6667 15.0421 10.8446 15.4623 11.2002 15.8108C11.5559 16.1592 11.9878 16.3333 12.496 16.3333Z" fill="white"/>
</g>
</svg>
