<svg width="40" height="40" viewBox="0 0 40 40" fill="none" xmlns="http://www.w3.org/2000/svg">
<circle cx="20" cy="20" r="20" fill="#1F22EE"/>
<mask id="mask0_560_546" style="mask-type:alpha" maskUnits="userSpaceOnUse" x="8" y="8" width="24" height="24">
<rect x="8" y="8" width="24" height="24" fill="#D9D9D9"/>
</mask>
<g mask="url(#mask0_560_546)">
<path d="M20 30C18.6167 30 17.4375 29.5125 16.4625 28.5375C15.4875 27.5625 15 26.3833 15 25C15 24.1667 15.1861 23.3848 15.5582 22.6543C15.9306 21.9236 16.4722 21.3555 17.1832 20.95V12.8168C17.1832 12.0343 17.4571 11.3692 18.0048 10.8215C18.5526 10.2738 19.2177 10 20 10C20.7823 10 21.4474 10.2738 21.9953 10.8215C22.5429 11.3692 22.8168 12.0343 22.8168 12.8168V20.95C23.5278 21.3555 24.0694 21.9236 24.4418 22.6543C24.8139 23.3848 25 24.1667 25 25C25 26.3833 24.5125 27.5625 23.5375 28.5375C22.5625 29.5125 21.3833 30 20 30ZM18.85 19.0833H21.15V17.8668H20V16.8833H21.15V14.7668H20V13.7918H21.15V12.8168C21.15 12.4909 21.0396 12.2178 20.8188 11.9973C20.5979 11.7769 20.3243 11.6667 19.998 11.6667C19.6715 11.6667 19.3986 11.7769 19.1793 11.9973C18.9598 12.2178 18.85 12.4909 18.85 12.8168V19.0833Z" fill="white"/>
</g>
</svg>
