<svg width="40" height="40" viewBox="0 0 40 40" fill="none" xmlns="http://www.w3.org/2000/svg">
<circle cx="20" cy="20" r="20" fill="#1F22EE"/>
<mask id="mask0_560_45" style="mask-type:alpha" maskUnits="userSpaceOnUse" x="8" y="8" width="24" height="24">
<rect x="8" y="8" width="24" height="24" fill="#D9D9D9"/>
</mask>
<g mask="url(#mask0_560_45)">
<path d="M21.3671 30.4668L19.7003 30.1333L20.4836 25.9L16.8503 23.1668L15.5003 17.2667L13.0171 19.4L13.8003 23.1333L12.1336 23.4668L11.1836 18.8333L15.5671 14.925C15.9281 14.6028 16.3517 14.4737 16.8378 14.5375C17.324 14.6013 17.7976 14.7277 18.2586 14.9167C18.8143 15.1501 19.3879 15.3195 19.9796 15.425C20.5713 15.5305 21.1643 15.5416 21.7586 15.4583C22.3198 15.3749 22.8406 15.1861 23.3211 14.8918C23.8018 14.5972 24.2615 14.2722 24.7003 13.9167L25.7503 15.2167C25.2837 15.5777 24.8003 15.9194 24.3003 16.2418C23.8003 16.5639 23.2643 16.8056 22.6921 16.9668C22.1198 17.1277 21.535 17.1986 20.9378 17.1793C20.3407 17.1598 19.7559 17.0778 19.1836 16.9333L19.9671 20.4668L23.7671 19.75L28.7671 23.3L27.7671 24.6333L23.5336 21.6833L19.5003 22.4832L22.4171 24.6333L21.3671 30.4668ZM16.0003 13.1667C15.4948 13.1667 15.0629 12.9876 14.7046 12.6292C14.3463 12.2709 14.1671 11.8389 14.1671 11.3333C14.1671 10.8278 14.3463 10.3958 14.7046 10.0375C15.0629 9.67917 15.4948 9.5 16.0003 9.5C16.5058 9.5 16.9378 9.67917 17.2961 10.0375C17.6544 10.3958 17.8336 10.8278 17.8336 11.3333C17.8336 11.8389 17.6544 12.2709 17.2961 12.6292C16.9378 12.9876 16.5058 13.1667 16.0003 13.1667Z" fill="white"/>
</g>
</svg>
