<svg width="40" height="40" viewBox="0 0 40 40" fill="none" xmlns="http://www.w3.org/2000/svg">
<circle cx="20" cy="20" r="19.75" fill="#F8F9FA" stroke="#6C757D" stroke-width="0.5"/>
<g clip-path="url(#clip0_360_2610)">
<rect width="20" height="20" transform="translate(10.4004 9.6001)" fill="#F8F9FA"/>
<path d="M19.5537 29.6001C17.8313 29.6001 16.4287 28.1984 16.4287 26.4751C16.4287 26.1301 16.7087 25.8501 17.0537 25.8501C17.3987 25.8501 17.6787 26.1301 17.6787 26.4751C17.6787 27.5093 18.5204 28.3501 19.5537 28.3501C20.587 28.3501 21.4287 27.5093 21.4287 26.4751C21.4287 26.1301 21.7087 25.8501 22.0537 25.8501C22.3987 25.8501 22.6787 26.1301 22.6787 26.4751C22.6787 28.1984 21.2763 29.6001 19.5537 29.6001Z" fill="#6C757D"/>
<path d="M26.429 27.1001H12.679C11.8748 27.1001 11.2207 26.446 11.2207 25.6418C11.2207 25.215 11.4066 24.811 11.7307 24.5334C11.7516 24.5151 11.774 24.4985 11.7973 24.4834C13.0206 23.4159 13.7207 21.8801 13.7207 20.2584V17.9334C13.7207 14.7168 16.3382 12.1001 19.554 12.1001C19.6873 12.1001 19.8315 12.1025 19.9649 12.1251C20.3056 12.1817 20.5357 12.5043 20.479 12.8443C20.4224 13.1842 20.094 13.4143 19.7598 13.3576C19.6931 13.3467 19.6199 13.3501 19.554 13.3501C17.0274 13.3501 14.9707 15.4059 14.9707 17.9334V20.2584C14.9707 22.2718 14.0881 24.1768 12.5516 25.4842C12.5391 25.4943 12.5282 25.5034 12.5148 25.5126C12.4924 25.541 12.4707 25.5843 12.4707 25.6418C12.4707 25.755 12.5658 25.8501 12.679 25.8501H26.429C26.5424 25.8501 26.6374 25.755 26.6374 25.6418C26.6374 25.5834 26.6158 25.541 26.5924 25.5126C26.5799 25.5034 26.5691 25.4943 26.5565 25.4842C25.0191 24.1759 24.1374 22.2718 24.1374 20.2584V19.3502C24.1374 19.0052 24.4174 18.7252 24.7624 18.7252C25.1074 18.7252 25.3874 19.0052 25.3874 19.3502V20.2584C25.3874 21.881 26.0883 23.4175 27.3132 24.486C27.3357 24.5009 27.3573 24.5168 27.3773 24.5343C27.7016 24.811 27.8874 25.215 27.8874 25.6418C27.8874 26.446 27.2333 27.1001 26.429 27.1001Z" fill="#6C757D"/>
<path d="M25.3874 17.9334C23.0899 17.9334 21.2207 16.0643 21.2207 13.7668C21.2207 11.4693 23.0899 9.6001 25.3874 9.6001C27.6849 9.6001 29.554 11.4693 29.554 13.7668C29.554 16.0643 27.6849 17.9334 25.3874 17.9334ZM25.3874 10.8501C23.779 10.8501 22.4707 12.1584 22.4707 13.7668C22.4707 15.3751 23.779 16.6834 25.3874 16.6834C26.9957 16.6834 28.304 15.3751 28.304 13.7668C28.304 12.1584 26.9957 10.8501 25.3874 10.8501Z" fill="#007BFF"/>
</g>
<defs>
<clipPath id="clip0_360_2610">
<rect width="20" height="20" fill="white" transform="translate(10.4004 9.6001)"/>
</clipPath>
</defs>
</svg>
