<svg width="40" height="40" viewBox="0 0 40 40" fill="none" xmlns="http://www.w3.org/2000/svg">
<circle cx="20" cy="20" r="20" fill="#1F22EE"/>
<mask id="mask0_535_579" style="mask-type:alpha" maskUnits="userSpaceOnUse" x="8" y="8" width="24" height="24">
<rect x="8" y="8" width="24" height="24" fill="#D9D9D9"/>
</mask>
<g mask="url(#mask0_535_579)">
<path d="M15.3335 11C16.2558 11 17.117 11.2111 17.917 11.6333C18.717 12.0556 19.4114 12.6612 20.0002 13.45C20.6557 12.6278 21.3752 12.0139 22.1585 11.6083C22.9418 11.2028 23.778 11 24.667 11C26.178 11 27.4447 11.5111 28.467 12.5333C29.4892 13.5556 30.0002 14.8278 30.0002 16.35C30.0002 16.5445 29.9905 16.7362 29.971 16.925C29.9517 17.1138 29.9197 17.3055 29.8752 17.5H28.1752C28.2364 17.3055 28.2781 17.1138 28.3002 16.925C28.3224 16.7362 28.3335 16.5445 28.3335 16.35C28.3335 15.2833 27.9891 14.4028 27.3002 13.7083C26.6114 13.0139 25.7337 12.6667 24.667 12.6667C23.8392 12.6667 23.0697 12.9153 22.3585 13.4125C21.6475 13.9097 21.1003 14.5888 20.717 15.45H19.267C18.8947 14.6 18.353 13.9236 17.642 13.4208C16.9308 12.9181 16.1613 12.6667 15.3335 12.6667C14.2668 12.6667 13.3891 13.0139 12.7002 13.7083C12.0114 14.4028 11.667 15.2833 11.667 16.35C11.667 16.5445 11.6781 16.7362 11.7002 16.925C11.7224 17.1138 11.7641 17.3055 11.8252 17.5H10.1252C10.0807 17.3055 10.0488 17.1138 10.0295 16.925C10.01 16.7362 10.0002 16.5445 10.0002 16.35C10.0002 14.8278 10.5113 13.5556 11.5335 12.5333C12.5558 11.5111 13.8225 11 15.3335 11ZM12.967 22.5H15.2002C15.8002 23.1388 16.4919 23.8332 17.2752 24.5832C18.0586 25.3332 18.9669 26.1777 20.0002 27.1167C21.0336 26.1777 21.9392 25.3332 22.717 24.5832C23.4947 23.8332 24.1835 23.1388 24.7835 22.5H27.042C26.3642 23.2778 25.5475 24.1334 24.592 25.0668C23.6363 26.0001 22.4947 27.0723 21.167 28.2832L20.0002 29.3333L18.8335 28.2832C17.5058 27.0723 16.3656 26.0001 15.4127 25.0668C14.4599 24.1334 13.6447 23.2778 12.967 22.5ZM19.0502 23.8332C19.2224 23.8332 19.3738 23.7819 19.5045 23.6792C19.635 23.5764 19.728 23.4417 19.7835 23.275L21.2502 18.9L22.3085 20.4668C22.3918 20.5778 22.4918 20.6666 22.6085 20.7332C22.7252 20.7999 22.8557 20.8332 23.0002 20.8332H30.8335V19.1667H23.4752L21.7002 16.55C21.6114 16.4222 21.5017 16.3291 21.371 16.2708C21.2405 16.2124 21.1002 16.1833 20.9502 16.1833C20.7781 16.1833 20.6239 16.2347 20.4877 16.3375C20.3516 16.4403 20.2557 16.5751 20.2002 16.7417L18.7502 21.1082L17.6835 19.5332C17.6002 19.4222 17.503 19.3334 17.392 19.2668C17.2808 19.2001 17.153 19.1667 17.0085 19.1667H9.16699V20.8332H16.5085L18.2835 23.4668C18.3725 23.5944 18.485 23.6874 18.621 23.7457C18.7572 23.8041 18.9002 23.8332 19.0502 23.8332Z" fill="white"/>
</g>
</svg>
