<svg width="20" height="20" viewBox="0 0 20 20" fill="none" xmlns="http://www.w3.org/2000/svg">
<mask id="mask0_519_399" style="mask-type:alpha" maskUnits="userSpaceOnUse" x="0" y="0" width="20" height="20">
<rect width="20" height="20" fill="#D9D9D9"/>
</mask>
<g mask="url(#mask0_519_399)">
<path d="M3.33464 16.6671C2.8763 16.6671 2.48394 16.5039 2.15755 16.1775C1.83116 15.8511 1.66797 15.4587 1.66797 15.0004V5.00041C1.66797 4.54207 1.83116 4.14971 2.15755 3.82332C2.48394 3.49693 2.8763 3.33374 3.33464 3.33374H16.668C17.1263 3.33374 17.5187 3.49693 17.8451 3.82332C18.1714 4.14971 18.3346 4.54207 18.3346 5.00041V15.0004C18.3346 15.4587 18.1714 15.8511 17.8451 16.1775C17.5187 16.5039 17.1263 16.6671 16.668 16.6671H3.33464ZM10.0013 10.8337L3.33464 6.66707V15.0004H16.668V6.66707L10.0013 10.8337ZM10.0013 9.16707L16.668 5.00041H3.33464L10.0013 9.16707ZM3.33464 6.66707V5.00041V15.0004V6.66707Z" fill="white"/>
</g>
</svg>
