<svg width="16" height="16" viewBox="0 0 16 16" fill="none" xmlns="http://www.w3.org/2000/svg">
<mask id="mask0_71_263" style="mask-type:alpha" maskUnits="userSpaceOnUse" x="0" y="0" width="16" height="16">
<rect width="16" height="16" fill="#D9D9D9"/>
</mask>
<g mask="url(#mask0_71_263)">
<path d="M13.3 8.60002H5.60002V7.40002H13.3L12.35 6.45002L13.2 5.60002L15.6 8.00002L13.2 10.4L12.35 9.55002L13.3 8.60002ZM10 6.20002V3.60002H3.60002V12.4H10V9.80002H11.2V12.4C11.2 12.73 11.0825 13.0125 10.8475 13.2475C10.6125 13.4825 10.33 13.6 10 13.6H3.60002C3.27002 13.6 2.98752 13.4825 2.75252 13.2475C2.51752 13.0125 2.40002 12.73 2.40002 12.4V3.60002C2.40002 3.27002 2.51752 2.98752 2.75252 2.75252C2.98752 2.51752 3.27002 2.40002 3.60002 2.40002H10C10.33 2.40002 10.6125 2.51752 10.8475 2.75252C11.0825 2.98752 11.2 3.27002 11.2 3.60002V6.20002H10Z" fill="black"/>
</g>
</svg>
