<svg width="40" height="40" viewBox="0 0 40 40" fill="none" xmlns="http://www.w3.org/2000/svg">
<circle cx="20" cy="20" r="20" fill="#1F22EE"/>
<mask id="mask0_560_690" style="mask-type:alpha" maskUnits="userSpaceOnUse" x="8" y="8" width="24" height="24">
<rect x="8" y="8" width="24" height="24" fill="#D9D9D9"/>
</mask>
<g mask="url(#mask0_560_690)">
<path d="M18 30V28.3332H31V30H18ZM19 27C19 25.65 19.425 24.4708 20.275 23.4625C21.125 22.4541 22.2 21.8347 23.5 21.6042V20.9865C23.5 20.7066 23.5958 20.4709 23.7875 20.2792C23.9792 20.0875 24.2167 19.9917 24.5 19.9917C24.7833 19.9917 25.0208 20.0875 25.2125 20.2792C25.4042 20.4709 25.5 20.7084 25.5 20.9917V21.606C26.7833 21.8353 27.8542 22.4541 28.7125 23.4625C29.5708 24.4708 30 25.65 30 27H19ZM21.0582 25.325H27.9083C27.6028 24.6861 27.1458 24.1653 26.5375 23.7625C25.9292 23.3596 25.2512 23.1582 24.5035 23.1582C23.7345 23.1582 23.0444 23.3596 22.4333 23.7625C21.8223 24.1653 21.3639 24.6861 21.0582 25.325ZM9 20.9667V10.7332H14.5832V12.1667L22.1 10.0332L30 12.4667V13.5832C30 14.2777 29.7361 14.868 29.2083 15.3542C28.6806 15.8402 28.0667 16.0832 27.3667 16.0832H24.8V16.2832C24.8 16.6332 24.6292 17.0624 24.2875 17.5707C23.9458 18.079 23.6167 18.3971 23.3 18.525L16.8 20.9667H9ZM10.6667 19.3H12.9V12.4H10.6667V19.3ZM14.5832 19.3H16.5168L22.5332 17.0417C22.6944 16.986 22.8236 16.854 22.9208 16.6457C23.0181 16.4374 23.0667 16.2499 23.0667 16.0832H21.1917L18.3 17.0332L17.7332 15.4332L20.925 14.4167H27.3667C27.5722 14.4167 27.7736 14.3445 27.9707 14.2C28.1681 14.0555 28.2668 13.8832 28.2668 13.6832L22.0167 11.7667L14.5832 13.9V19.3Z" fill="white"/>
</g>
</svg>
