<svg width="40" height="40" viewBox="0 0 40 40" fill="none" xmlns="http://www.w3.org/2000/svg">
<circle cx="20" cy="20" r="20" fill="#1F22EE"/>
<mask id="mask0_560_627" style="mask-type:alpha" maskUnits="userSpaceOnUse" x="8" y="8" width="24" height="24">
<rect x="8" y="8" width="24" height="24" fill="#D9D9D9"/>
</mask>
<g mask="url(#mask0_560_627)">
<path d="M20.1 27.9C19.85 27.9 19.6375 27.8125 19.4625 27.6375C19.2875 27.4625 19.2 27.25 19.2 27V23C19.2 22.75 19.2875 22.5375 19.4625 22.3625C19.6375 22.1875 19.85 22.1 20.1 22.1H22.6C22.85 22.1 23.0625 22.1875 23.2375 22.3625C23.4125 22.5375 23.5 22.75 23.5 23V27C23.5 27.25 23.4125 27.4625 23.2375 27.6375C23.0625 27.8125 22.85 27.9 22.6 27.9H20.1ZM20.5 26.6H22.2V23.4H20.5V26.6ZM25 30V27.25C25 26.9888 25.0848 26.7736 25.2543 26.6043C25.4236 26.4348 25.6388 26.35 25.9 26.35H28.2V25.3H25V24H28.6C28.8612 24 29.0764 24.0848 29.2458 24.2543C29.4153 24.4236 29.5 24.6388 29.5 24.9V26.75C29.5 27.0112 29.4153 27.2264 29.2458 27.3958C29.0764 27.5653 28.8612 27.65 28.6 27.65H26.3V28.7H29.5V30H25ZM17.3333 29.9668C15.1944 29.8001 13.4375 28.9487 12.0625 27.4125C10.6875 25.8763 10 24.0055 10 21.8C10 20.1333 10.6625 18.3208 11.9875 16.3625C13.3125 14.4042 15.3167 12.2833 18 10C20.2222 11.8888 21.9958 13.6999 23.3208 15.4333C24.6458 17.1666 25.4778 18.7666 25.8168 20.2333H24.0918C23.7584 19.0944 23.0723 17.8389 22.0333 16.4668C20.9944 15.0944 19.65 13.6778 18 12.2167C15.9278 14.0668 14.3543 15.8056 13.2793 17.4333C12.2043 19.0611 11.6668 20.5167 11.6668 21.8C11.6668 23.5445 12.1959 25.0209 13.2543 26.2293C14.3126 27.4376 15.6722 28.1251 17.3333 28.2918V29.9668Z" fill="white"/>
</g>
</svg>
