<svg width="141" height="40" viewBox="0 0 141 40" fill="none" xmlns="http://www.w3.org/2000/svg">
<path d="M77.2262 15.8748H69.5264V30.7393H77.2262V15.8748Z" fill="#004381"/>
<path d="M66.9816 15.8757H48.6519L47.2012 18.1226V18.3065H53.9771V30.7394H61.6769V18.3065H68.4467V18.1226L66.9816 15.8757Z" fill="#004381"/>
<path d="M79.7717 15.8757H98.1014L99.55 18.1226V18.3065H92.7763V30.7394H85.0764V18.3065H78.3066V18.1226L79.7717 15.8757Z" fill="#004381"/>
<path d="M109.022 28.0307L110.485 30.7403H118.8V30.5536L110.746 15.8738H102.991L94.1631 30.5536V30.7403H99.4L100.84 28.0307H109.022ZM101.974 25.6697L105.007 19.9732L107.779 25.6697H101.974Z" fill="#004381"/>
<path d="M123.263 15.8757L135.304 23.7705V15.8757H139.586V30.7394H135.477L123.736 23.1209V30.7394H119.569V15.8757H123.263Z" fill="#004381"/>
<path fill-rule="evenodd" clip-rule="evenodd" d="M15.5008 11.6721C20.9394 9.49792 26.4169 8.0595 31.378 7.4834C31.697 7.73361 31.9808 8.01475 32.2791 8.28306C27.2974 9.16613 21.7459 10.7732 16.0853 13.0369C10.4081 15.3076 5.29886 17.9637 1.12793 20.7429C1.14436 20.3446 1.1608 19.9452 1.2021 19.5469C5.12187 16.5751 10.0501 13.8535 15.5008 11.6721Z" fill="#9C9D9F"/>
<path fill-rule="evenodd" clip-rule="evenodd" d="M20.525 23.389C26.9058 20.8362 32.976 18.2359 37.7087 16.0269C37.935 16.7449 38.1284 17.4712 38.2643 18.2031C33.8239 20.883 27.9759 23.7229 21.7411 26.2179C15.5064 28.708 9.29221 30.6936 4.18701 31.833C3.74453 31.2232 3.34756 30.5754 2.98535 29.9149C7.92767 28.2501 14.1235 25.9477 20.525 23.389Z" fill="#9C9D9F"/>
<path fill-rule="evenodd" clip-rule="evenodd" d="M17.5808 16.5202C23.8217 14.026 30.0358 12.0406 35.1328 10.9053C35.5753 11.5151 35.9704 12.1608 36.3324 12.8213C31.3755 14.4921 25.1797 16.7944 18.7949 19.3472C12.4202 21.897 6.35203 24.4984 1.61114 26.7094C1.38274 25.9931 1.19142 25.2671 1.05762 24.5332C5.49593 21.8512 11.3481 19.0144 17.5808 16.5202Z" fill="#9C9D9F"/>
<path fill-rule="evenodd" clip-rule="evenodd" d="M25.5745 35.1535C29.1259 33.7331 32.4821 31.9878 35.4657 30.0371C35.2394 30.4234 35.0274 30.8189 34.7701 31.1883C32.0746 33.0399 29.095 34.6349 25.8994 35.9124C22.6956 37.1938 19.428 38.0997 16.1768 38.63C15.72 38.5425 15.2775 38.4085 14.8291 38.2883C18.3728 37.6308 22.023 36.5738 25.5745 35.1535Z" fill="#9C9D9F"/>
<path fill-rule="evenodd" clip-rule="evenodd" d="M23.2336 29.6992C28.9088 27.4316 34.0199 24.7744 38.1929 21.9873C38.1765 22.3866 38.16 22.787 38.1187 23.1863C34.1886 26.1642 29.2583 28.8877 23.82 31.065C18.3754 33.2412 12.8978 34.6815 7.9492 35.2566C7.63019 35.0072 7.34637 34.7242 7.0459 34.4559C12.0213 33.575 17.5709 31.9659 23.2336 29.6992Z" fill="#9C9D9F"/>
<path fill-rule="evenodd" clip-rule="evenodd" d="M13.4198 6.82486C16.6154 5.54755 19.887 4.64251 23.1525 4.10913C23.6032 4.19457 24.0436 4.32964 24.488 4.44885C20.9529 5.10632 17.3025 6.16231 13.7449 7.58161C10.1913 9.00416 6.83733 10.7514 3.85352 12.7002C4.07981 12.3119 4.296 11.9125 4.55517 11.5411C7.24251 9.6954 10.22 8.10522 13.4198 6.82486Z" fill="#9C9D9F"/>
<path fill-rule="evenodd" clip-rule="evenodd" d="M39.7377 8.75002C39.252 8.09539 38.7273 7.47657 38.1677 6.89844C33.1491 7.66332 27.0932 9.34382 20.7905 11.8649C14.49 14.3829 8.9754 17.3329 4.86621 20.2155C4.89297 21.008 4.97725 21.8018 5.11105 22.5974C9.44254 19.9653 15.2844 17.0827 21.8955 14.4396C28.5068 11.7973 34.7458 9.84668 39.7377 8.75002Z" fill="#004381"/>
<path fill-rule="evenodd" clip-rule="evenodd" d="M30.7356 35.0433C27.3178 36.4081 23.8938 37.3377 20.5996 37.8603C24.1388 38.4971 27.9002 38.1901 31.4704 36.7598C35.0446 35.3324 37.9293 32.9804 39.9665 30.1157C37.2542 31.9958 34.1514 33.6755 30.7356 35.0433Z" fill="#004381"/>
<path fill-rule="evenodd" clip-rule="evenodd" d="M17.4762 4.13905C20.894 2.77224 24.318 1.84462 27.6122 1.32202C24.0729 0.685295 20.3116 0.994298 16.7393 2.42255C13.1672 3.85182 10.2822 6.19996 8.24512 9.06358C10.9594 7.18637 14.0604 5.50587 17.4762 4.13905Z" fill="#004381"/>
<path fill-rule="evenodd" clip-rule="evenodd" d="M27.4207 27.3165C33.7194 24.7955 39.2338 21.8484 43.3451 18.9659C43.3183 18.1723 43.234 17.3796 43.0981 16.584C38.7687 19.2161 32.925 22.0986 26.3158 24.7409C19.7066 27.3841 13.4636 29.3349 8.47363 30.4316C8.95931 31.0862 9.48186 31.705 10.0436 32.2821C15.0603 31.515 21.1202 29.8374 27.4207 27.3165Z" fill="#004381"/>
</svg>
