<svg width="24" height="24" viewBox="0 0 24 24" fill="none" xmlns="http://www.w3.org/2000/svg">
<mask id="mask0_560_605" style="mask-type:alpha" maskUnits="userSpaceOnUse" x="0" y="0" width="24" height="24">
<rect width="24" height="24" fill="#D9D9D9"/>
</mask>
<g mask="url(#mask0_560_605)">
<path d="M1 16.5V7H2.66675V14.8332H11.2168V7H19.25C20.2813 7 21.1642 7.36717 21.8985 8.1015C22.6328 8.836 23 9.71883 23 10.75V16.5H1ZM12.8833 14.8332H21.3333V10.75C21.3333 10.1772 21.1292 9.68675 20.7213 9.27875C20.3134 8.87075 19.823 8.66675 19.25 8.66675H12.8833V14.8332ZM6.83325 13.5168C7.61108 13.5168 8.26667 13.2501 8.8 12.7168C9.33333 12.1834 9.6 11.5278 9.6 10.75C9.6 9.97217 9.33333 9.31658 8.8 8.78325C8.26667 8.24992 7.61108 7.98325 6.83325 7.98325C6.05558 7.98325 5.40008 8.24992 4.86675 8.78325C4.33342 9.31658 4.06675 9.97217 4.06675 10.75C4.06675 11.5278 4.33342 12.1834 4.86675 12.7168C5.40008 13.2501 6.05558 13.5168 6.83325 13.5168ZM6.83325 11.85C6.52775 11.85 6.26808 11.7431 6.05425 11.5293C5.84025 11.3153 5.73325 11.0555 5.73325 10.75C5.73325 10.4445 5.84025 10.1848 6.05425 9.97075C6.26808 9.75692 6.52775 9.65 6.83325 9.65C7.13892 9.65 7.39867 9.75692 7.6125 9.97075C7.82633 10.1848 7.93325 10.4445 7.93325 10.75C7.93325 11.0555 7.82633 11.3153 7.6125 11.5293C7.39867 11.7431 7.13892 11.85 6.83325 11.85Z" fill="white"/>
</g>
</svg>
