<svg width="34" height="36" viewBox="0 0 34 36" fill="none" xmlns="http://www.w3.org/2000/svg">
<path fill-rule="evenodd" clip-rule="evenodd" d="M30.6374 7.19151L29.1539 31.6732C29.0066 34.1044 26.9922 35.9999 24.5576 35.9999H9.09269C6.65809 35.9999 4.64376 34.1044 4.49641 31.6732L3.01288 7.19151C2.99279 6.84658 3.11502 6.50835 3.35279 6.25551C3.59055 6.00268 3.92041 5.86035 4.26702 5.86035H29.3833C29.7299 5.86035 30.0598 6.00268 30.2975 6.25551C30.5353 6.50835 30.6575 6.84658 30.6374 7.19151ZM28.0488 8.37198H5.60153L7.00469 31.5225C7.07167 32.6259 7.9859 33.4883 9.09269 33.4883H24.5576C25.6644 33.4883 26.5786 32.6259 26.6456 31.5225L28.0488 8.37198Z" fill="#D42124"/>
<path fill-rule="evenodd" clip-rule="evenodd" d="M31.8953 5.86035C32.5886 5.86035 33.1512 6.42296 33.1512 7.11617C33.1512 7.80938 32.5886 8.37198 31.8953 8.37198H1.75581C1.0626 8.37198 0.5 7.80938 0.5 7.11617C0.5 6.42296 1.0626 5.86035 1.75581 5.86035H31.8953Z" fill="#D42124"/>
<path fill-rule="evenodd" clip-rule="evenodd" d="M24.5884 3.34047L25.5679 6.77135C25.6768 7.14977 25.5997 7.55833 25.3637 7.87312C25.1259 8.18791 24.7542 8.37209 24.3607 8.37209H9.29091C8.89742 8.37209 8.5257 8.18791 8.28793 7.87312C8.05184 7.55833 7.97481 7.14977 8.08365 6.77135L9.06319 3.34047C9.62914 1.36298 11.4358 0 13.492 0H20.1596C22.2157 0 24.0224 1.36298 24.5884 3.34047ZM22.1722 4.03033C21.916 3.13116 21.0956 2.51163 20.1596 2.51163H13.492C12.556 2.51163 11.7356 3.13116 11.4794 4.03033L10.9553 5.86047H22.6963L22.1722 4.03033Z" fill="#D42124"/>
<path fill-rule="evenodd" clip-rule="evenodd" d="M15.5693 14.6513C15.5693 13.9581 16.1319 13.3955 16.8252 13.3955C17.5184 13.3955 18.081 13.9581 18.081 14.6513V26.3723C18.081 27.0655 17.5184 27.6281 16.8252 27.6281C16.1319 27.6281 15.5693 27.0655 15.5693 26.3723V14.6513Z" fill="#D42124"/>
<path fill-rule="evenodd" clip-rule="evenodd" d="M23.9352 26.4709C23.8665 27.1607 23.2503 27.6647 22.5605 27.5961C21.8706 27.5274 21.3683 26.9113 21.4369 26.2214L22.604 14.5524C22.6727 13.8625 23.2888 13.3585 23.9787 13.4272C24.6686 13.4958 25.1726 14.112 25.1039 14.8019L23.9352 26.4709Z" fill="#D42124"/>
<path fill-rule="evenodd" clip-rule="evenodd" d="M12.2143 26.2214C12.2829 26.9113 11.7806 27.5274 11.0907 27.5961C10.4009 27.6647 9.78467 27.1607 9.71602 26.4709L8.54727 14.8019C8.47862 14.112 8.98262 13.4958 9.67248 13.4272C10.3623 13.3585 10.9785 13.8625 11.0472 14.5524L12.2143 26.2214Z" fill="#D42124"/>
</svg>
