<svg width="24" height="24" viewBox="0 0 24 24" fill="none" xmlns="http://www.w3.org/2000/svg">
<mask id="mask0_560_662" style="mask-type:alpha" maskUnits="userSpaceOnUse" x="0" y="0" width="24" height="24">
<rect width="24" height="24" fill="#D9D9D9"/>
</mask>
<g mask="url(#mask0_560_662)">
<path d="M13.9083 22.0001C13.4306 22.0001 12.9737 21.9001 12.5375 21.7001C12.1013 21.5001 11.7361 21.2112 11.4418 20.8333L6.00825 13.9251L6.51675 13.3751C6.78342 13.0918 7.10842 12.9195 7.49175 12.8583C7.87508 12.7973 8.23342 12.864 8.56675 13.0583L10.8332 14.3168V3.83335C10.8332 3.59735 10.9134 3.39943 11.0738 3.2396C11.2341 3.07993 11.4327 3.0001 11.6695 3.0001C11.9065 3.0001 12.1056 3.07993 12.2668 3.2396C12.4277 3.39943 12.5082 3.59735 12.5082 3.83335V17.1833L9.3 15.4001L12.7668 19.8083C12.9111 19.9862 13.0819 20.1182 13.2792 20.2043C13.4766 20.2903 13.6863 20.3333 13.9083 20.3333H19.1667C19.7722 20.3333 20.2847 20.1237 20.7042 19.7043C21.1236 19.2848 21.3333 18.7723 21.3333 18.1668V10.8333C21.3333 10.5973 21.4134 10.3994 21.5737 10.2396C21.7341 10.0799 21.9327 10.0001 22.1695 10.0001C22.4065 10.0001 22.6042 10.0799 22.7625 10.2396C22.9208 10.3994 23 10.5973 23 10.8333V18.1668C23 19.2335 22.6278 20.139 21.8833 20.8833C21.1389 21.6278 20.2334 22.0001 19.1667 22.0001H13.9083ZM14.3333 13.0001V7.83335C14.3333 7.59735 14.4134 7.39943 14.5737 7.2396C14.7341 7.07993 14.9327 7.0001 15.1695 7.0001C15.4065 7.0001 15.6042 7.07993 15.7625 7.2396C15.9208 7.39943 16 7.59735 16 7.83335V13.0001H14.3333ZM17.8333 13.0001V8.83335C17.8333 8.59735 17.9134 8.39943 18.0737 8.2396C18.2341 8.07993 18.4327 8.0001 18.6695 8.0001C18.9065 8.0001 19.1042 8.07993 19.2625 8.2396C19.4208 8.39943 19.5 8.59735 19.5 8.83335V13.0001H17.8333ZM4.5 10.0001C3.53333 10.0001 2.70833 9.66676 2.025 9.0001C1.34167 8.33343 1 7.51676 1 6.5501C1 5.8501 1.20833 5.22093 1.625 4.6626C2.04167 4.10426 2.475 3.55843 2.925 3.0251L4.5 1.2251L6.075 3.0501C6.525 3.58343 6.95833 4.1251 7.375 4.6751C7.79167 5.2251 8 5.8501 8 6.5501C8 7.51676 7.65833 8.33343 6.975 9.0001C6.29167 9.66676 5.46667 10.0001 4.5 10.0001ZM4.496 8.33335C5.00417 8.33335 5.43742 8.15918 5.79575 7.81085C6.15408 7.46235 6.33325 7.0421 6.33325 6.5501C6.33325 6.06676 6.16792 5.64426 5.83725 5.2826C5.50642 4.92076 5.18008 4.55435 4.85825 4.18335L4.48325 3.79185L4.125 4.18335C3.80283 4.55001 3.47925 4.91535 3.15425 5.27935C2.82925 5.64318 2.66675 6.06676 2.66675 6.5501C2.66675 7.0421 2.84458 7.46235 3.20025 7.81085C3.55592 8.15918 3.98783 8.33335 4.496 8.33335Z" fill="white"/>
</g>
</svg>
