<svg width="16" height="16" viewBox="0 0 16 16" fill="none" xmlns="http://www.w3.org/2000/svg">
<mask id="mask0_71_258" style="mask-type:alpha" maskUnits="userSpaceOnUse" x="0" y="0" width="16" height="16">
<rect width="16" height="16" fill="#D9D9D9"/>
</mask>
<g mask="url(#mask0_71_258)">
<path d="M7.99998 13.6C7.09998 13.6 6.2722 13.4084 5.51664 13.025C4.76109 12.6417 4.12775 12.1278 3.61664 11.4834L4.46664 10.6167C4.86664 11.1611 5.3722 11.5945 5.98331 11.9167C6.59442 12.2389 7.26664 12.4 7.99998 12.4C9.2152 12.4 10.2524 11.9705 11.1115 11.1115C11.9705 10.2524 12.4 9.21525 12.4 8.00002C12.4 6.7848 11.9698 5.74764 11.1093 4.88852C10.2488 4.02952 9.20986 3.60002 7.99264 3.60002C6.77531 3.60002 5.73331 4.03614 4.86664 4.90836C3.99998 5.78058 3.57775 6.84447 3.59998 8.10002L4.54998 7.15002L5.39998 8.00002L2.99998 10.4L0.599976 8.00002L1.44998 7.15002L2.39998 8.11669C2.38886 7.31669 2.53053 6.56669 2.82498 5.86669C3.11942 5.16669 3.5222 4.56114 4.03331 4.05002C4.54442 3.53891 5.14164 3.13614 5.82498 2.84169C6.50831 2.54725 7.23609 2.40002 8.00831 2.40002C8.78053 2.40002 9.50625 2.5478 10.1855 2.84336C10.8648 3.13891 11.4559 3.53819 11.9588 4.04119C12.4618 4.54408 12.8611 5.13519 13.1566 5.81452C13.4522 6.49375 13.6 7.22225 13.6 8.00002C13.6 9.55558 13.0555 10.8778 11.9666 11.9667C10.8778 13.0556 9.55553 13.6 7.99998 13.6ZM6.80464 10.4C6.63486 10.4 6.49164 10.3426 6.37498 10.2279C6.25831 10.1131 6.19998 9.97086 6.19998 9.80119V8.00452C6.19998 7.83486 6.25759 7.69241 6.37281 7.57719C6.48814 7.46186 6.63098 7.40419 6.80131 7.40419V6.80286C6.80131 6.47208 6.91903 6.18891 7.15448 5.95336C7.39003 5.7178 7.6732 5.60002 8.00398 5.60002C8.33464 5.60002 8.61703 5.71753 8.85114 5.95252C9.08525 6.18753 9.20231 6.47002 9.20231 6.80002V7.40002C9.37164 7.40002 9.51359 7.45752 9.62814 7.57252C9.7427 7.68752 9.79998 7.83002 9.79998 8.00002V9.80002C9.79998 9.97002 9.74259 10.1125 9.62781 10.2275C9.51292 10.3425 9.37064 10.4 9.20098 10.4H6.80464ZM7.39998 7.40002H8.59998V6.80352C8.59998 6.63452 8.54281 6.49169 8.42848 6.37502C8.31414 6.25836 8.17248 6.20002 8.00348 6.20002C7.83448 6.20002 7.69164 6.25752 7.57498 6.37252C7.45831 6.48752 7.39998 6.63002 7.39998 6.80002V7.40002Z" fill="black"/>
</g>
</svg>
