<svg width="40" height="40" viewBox="0 0 40 40" fill="none" xmlns="http://www.w3.org/2000/svg">
<circle cx="20" cy="20" r="20" fill="#1F22EE"/>
<mask id="mask0_560_603" style="mask-type:alpha" maskUnits="userSpaceOnUse" x="8" y="8" width="24" height="24">
<rect x="8" y="8" width="24" height="24" fill="#D9D9D9"/>
</mask>
<g mask="url(#mask0_560_603)">
<path d="M9 24.5V15H10.6667V22.8332H19.2168V15H27.25C28.2813 15 29.1642 15.3672 29.8985 16.1015C30.6328 16.836 31 17.7188 31 18.75V24.5H9ZM20.8833 22.8332H29.3333V18.75C29.3333 18.1772 29.1292 17.6868 28.7213 17.2788C28.3134 16.8708 27.823 16.6667 27.25 16.6667H20.8833V22.8332ZM14.8332 21.5168C15.6111 21.5168 16.2667 21.2501 16.8 20.7168C17.3333 20.1834 17.6 19.5278 17.6 18.75C17.6 17.9722 17.3333 17.3166 16.8 16.7833C16.2667 16.2499 15.6111 15.9833 14.8332 15.9833C14.0556 15.9833 13.4001 16.2499 12.8667 16.7833C12.3334 17.3166 12.0667 17.9722 12.0667 18.75C12.0667 19.5278 12.3334 20.1834 12.8667 20.7168C13.4001 21.2501 14.0556 21.5168 14.8332 21.5168ZM14.8332 19.85C14.5277 19.85 14.2681 19.7431 14.0542 19.5293C13.8402 19.3153 13.7332 19.0555 13.7332 18.75C13.7332 18.4445 13.8402 18.1848 14.0542 17.9708C14.2681 17.7569 14.5277 17.65 14.8332 17.65C15.1389 17.65 15.3987 17.7569 15.6125 17.9708C15.8263 18.1848 15.9332 18.4445 15.9332 18.75C15.9332 19.0555 15.8263 19.3153 15.6125 19.5293C15.3987 19.7431 15.1389 19.85 14.8332 19.85Z" fill="white"/>
</g>
</svg>
