<svg width="40" height="40" viewBox="0 0 40 40" fill="none" xmlns="http://www.w3.org/2000/svg">
<circle cx="20" cy="20" r="20" fill="white"/>
<rect x="14.5" y="14.5" width="11" height="11" rx="2.5" fill="#1F22EE" stroke="#1F22EE"/>
<path d="M23 14.5H23.5V14V13L23.5 12.9671C23.5 12.5238 23.5 12.1419 23.4589 11.8361C23.4149 11.5083 23.3155 11.1942 23.0607 10.9393C22.8058 10.6845 22.4917 10.5851 22.1639 10.5411C21.8581 10.5 21.4762 10.5 21.0329 10.5L21 10.5H19C18.989 10.5 18.978 10.5 18.9671 10.5C18.5238 10.5 18.1419 10.5 17.8361 10.5411C17.5083 10.5851 17.1942 10.6845 16.9393 10.9393C16.6845 11.1942 16.5851 11.5083 16.5411 11.8361C16.5 12.1419 16.5 12.5238 16.5 12.9671C16.5 12.978 16.5 12.989 16.5 13V14V14.5H17H23Z" stroke="#1F22EE"/>
<path d="M23 25.5H23.5V26V27L23.5 27.0329C23.5 27.4762 23.5 27.8581 23.4589 28.1639C23.4149 28.4917 23.3155 28.8058 23.0607 29.0607C22.8058 29.3155 22.4917 29.4149 22.1639 29.4589C21.8581 29.5 21.4762 29.5 21.0329 29.5L21 29.5H19C18.989 29.5 18.978 29.5 18.9671 29.5C18.5238 29.5 18.1419 29.5 17.8361 29.4589C17.5083 29.4149 17.1942 29.3155 16.9393 29.0607C16.6845 28.8058 16.5851 28.4917 16.5411 28.1639C16.5 27.8581 16.5 27.4762 16.5 27.0329C16.5 27.022 16.5 27.011 16.5 27V26V25.5H17H23Z" stroke="#1F22EE"/>
</svg>
