<svg width="24" height="24" viewBox="0 0 24 24" fill="none" xmlns="http://www.w3.org/2000/svg">
<path fill-rule="evenodd" clip-rule="evenodd" d="M21.5847 12.4126C19.6481 15.8904 15.9753 18.0508 12.0017 18.0508C8.02546 18.0508 4.35276 15.8904 2.41607 12.4126C2.26691 12.1426 2.26691 11.8571 2.41607 11.5873C4.35276 8.10954 8.02546 5.94935 12.0017 5.94935C15.9753 5.94935 19.648 8.10954 21.5847 11.5873C21.7365 11.8571 21.7365 12.1426 21.5847 12.4126ZM22.8218 10.8978C20.6357 6.97118 16.4897 4.53223 12.0017 4.53223C7.51105 4.53223 3.3651 6.97118 1.17895 10.8978C0.788008 11.5984 0.788008 12.4016 1.17895 13.1016C3.3651 17.0282 7.51105 19.4677 12.0017 19.4677C16.4897 19.4677 20.6357 17.0282 22.8218 13.1016C23.2128 12.4016 23.2128 11.5984 22.8218 10.8978ZM12.0017 14.9069C13.604 14.9069 14.908 13.6029 14.908 11.9998C14.908 10.3968 13.604 9.09279 12.0017 9.09279C10.3968 9.09279 9.0928 10.3968 9.0928 11.9998C9.0928 13.6029 10.3968 14.9069 12.0017 14.9069ZM12.0017 7.67566C9.6149 7.67566 7.67568 9.61568 7.67568 11.9999C7.67568 14.3846 9.61495 16.3238 12.0017 16.3238C14.3859 16.3238 16.3251 14.3846 16.3251 11.9999C16.3251 9.61568 14.3859 7.67566 12.0017 7.67566Z" fill="#894BF2"/>
</svg>
