<svg width="20" height="20" viewBox="0 0 20 20" fill="none" xmlns="http://www.w3.org/2000/svg">
<rect x="5.33301" y="5.3335" width="9.33333" height="9.33333" rx="2.5" fill="white" stroke="white"/>
<path d="M12.5 5.5H13V5V4.5L13 4.46708C13 4.02384 13 3.64193 12.9589 3.3361C12.9149 3.00835 12.8155 2.69417 12.5607 2.43934C12.3058 2.18451 11.9917 2.08514 11.6639 2.04107C11.3581 1.99995 10.9762 1.99997 10.5329 2C10.522 2 10.511 2 10.5 2H9.5C9.48899 2 9.47802 2 9.46708 2C9.02384 1.99997 8.64193 1.99995 8.3361 2.04107C8.00835 2.08514 7.69417 2.18451 7.43934 2.43934C7.18451 2.69417 7.08514 3.00835 7.04107 3.3361C6.99995 3.64193 6.99997 4.02384 7 4.46708C7 4.47802 7 4.48899 7 4.5V5V5.5H7.5H12.5Z" stroke="white"/>
<path d="M12.5 14.5H13V15V15.5L13 15.5329C13 15.9762 13 16.3581 12.9589 16.6639C12.9149 16.9917 12.8155 17.3058 12.5607 17.5607C12.3058 17.8155 11.9917 17.9149 11.6639 17.9589C11.3581 18 10.9762 18 10.5329 18C10.522 18 10.511 18 10.5 18H9.5C9.48899 18 9.47802 18 9.46708 18C9.02384 18 8.64193 18 8.3361 17.9589C8.00835 17.9149 7.69417 17.8155 7.43934 17.5607C7.18451 17.3058 7.08514 16.9917 7.04107 16.6639C6.99995 16.3581 6.99997 15.9762 7 15.5329C7 15.522 7 15.511 7 15.5V15V14.5H7.5H12.5Z" stroke="white"/>
</svg>
