<svg width="40" height="40" viewBox="0 0 40 40" fill="none" xmlns="http://www.w3.org/2000/svg">
<circle cx="20" cy="20" r="20" fill="white"/>
<path fill-rule="evenodd" clip-rule="evenodd" d="M13.2979 11C12.1933 11 11.2979 11.8954 11.2979 13V27C11.2979 28.1046 12.1933 29 13.2979 29H27.2979C28.4024 29 29.2979 28.1046 29.2979 27V13C29.2979 11.8954 28.4024 11 27.2979 11H13.2979ZM16.2979 21C16.2979 20.4477 15.8501 20 15.2979 20C14.7456 20 14.2979 20.4477 14.2979 21V25C14.2979 25.5523 14.7456 26 15.2979 26C15.8501 26 16.2979 25.5523 16.2979 25V21ZM20.2979 17C20.8501 17 21.2979 17.4477 21.2979 18V25C21.2979 25.5523 20.8501 26 20.2979 26C19.7456 26 19.2979 25.5523 19.2979 25V18C19.2979 17.4477 19.7456 17 20.2979 17ZM26.2979 15C26.2979 14.4477 25.8501 14 25.2979 14C24.7456 14 24.2979 14.4477 24.2979 15V25C24.2979 25.5523 24.7456 26 25.2979 26C25.8501 26 26.2979 25.5523 26.2979 25V15Z" fill="#1F22EE"/>
</svg>
